<svg xmlns="http://www.w3.org/2000/svg" viewBox="0 0 512 512">
  <rect width="512" height="512" rx="60" fill="#014C66"/>
  <g transform="translate(72.0,122.7) scale(13.0035)" fill="#ffffff">
    <!-- i: Stamm -->
    <path d="M0.5,20.5V5.3H3v15.2H0.5z"/>
    <!-- i: Punkt -->
    <rect x="0.5" y="0.5" width="2.5" height="2.5"/>
    <!-- n -->
    <path d="M12.7,5.3c0.6,0,1.3,0.1,1.8,0.3c0.6,0.2,1.1,0.6,1.6,1c0.5,0.4,0.8,1,1.1,1.6c0.3,0.6,0.4,1.4,0.4,2.2v8.8v1.2h-2.5l0-1.2v-8.8c0-0.4-0.1-0.8-0.2-1.1s-0.3-0.6-0.5-0.9c-0.2-0.2-0.5-0.4-0.8-0.5c-0.3-0.1-0.6-0.2-0.9-0.2H8.5l0,12.8l-2.5,0V7V5.3H12.7z"/>
    <!-- t -->
    <path d="M26.3,20.5h-1.3c-2.5,0-4.5-2-4.5-4.5V0.5h2.6v4.8l4,0l0,2.6h-4v8.2c0,1,0.8,1.9,1.9,1.9h1.3v2.6H26.3z"/>
  </g>
</svg>
