<svg xmlns="http://www.w3.org/2000/svg" width="138" height="19" viewBox="0 0 138 19">
    <path fill="#002C5F" fill-rule="evenodd" d="M18.532 0c10.236 0 18.533 4.253 18.533 9.499 0 5.248-8.297 9.501-18.533 9.501C8.297 19 0 14.747 0 9.499 0 4.253 8.297 0 18.532 0zm3.488 14.338c1.843-4.287-1.647-3.753-2.587-3.555-1.605.34-3.135.923-4.36 1.39-3.492 1.338-5.344 2.683-5.96 3.197-.074.064-.132.111-.168.15-.089.085-.152.177-.152.301 0 .14.125.254.37.336.02.007.081.032.104.038 2.664.813 5.847 1.288 9.269 1.288.027 0 .093.002.185 0 .41-.012.867-.102 1.236-.284 1.223-.61 1.755-2.142 2.063-2.86zm9.733-9.797h-.057c-.158.01-.247.106-.312.222-.042.074-.095.186-.149.3-.71 1.647-3.204 7.348-6.481 11.216-.08.096-.123.156-.16.223-.077.128-.06.233 0 .294.087.098.344.1.73.024 6.016-1.232 10.224-4.047 10.224-7.324 0-1.814-1.29-3.488-3.466-4.829-.18-.111-.299-.133-.386-.126zm15.365-1.859v5.196h5.885V2.682h3.242V16.32h-3.242v-5.483h-5.885v5.483h-3.243V2.682h3.243zm14.231 0l3.39 5.4 3.393-5.4h3.828l-5.6 8.914v4.723h-3.239v-4.723l-5.599-8.914h3.827zm15.154 0v10.683h5.198c.404 0 .69-.306.69-.686V2.682h3.237v10.851c0 .85-.25 1.536-.747 2.035-.5.498-1.184.751-2.039.751h-9.58V2.682h3.241zm21.716 0c.852 0 1.533.252 2.037.753.494.498.747 1.182.747 2.035v10.85h-3.238V6.317c0-.356-.27-.683-.687-.683h-5.202V16.32h-3.241V2.682zm15.373 0c.848 0 1.532.252 2.032.75.5.501.75 1.185.75 2.039v8.062c0 .85-.25 1.535-.75 2.035-.499.498-1.181.751-2.032.751h-9.583V2.682zm18.01 0V16.32h-3.237V12.1h-5.89v4.22h-3.235V5.47c0-.851.25-1.536.75-2.035.495-.501 1.183-.753 2.034-.753h9.578zm6.398 0V16.32h-3.241V2.682H138zM12.472 2.2c-.092-.098-.347-.098-.734-.024C5.72 3.405 1.512 6.221 1.512 9.498c0 1.814 1.293 3.488 3.468 4.83.18.11.3.131.387.126.157-.01.246-.106.31-.222.043-.074.097-.187.15-.3.71-1.647 3.205-7.351 6.482-11.218.077-.093.12-.154.162-.223.07-.127.055-.23 0-.292zm99.95 3.436h-5.176v7.73h5.197c.423 0 .693-.337.693-.705V6.34c0-.407-.288-.705-.713-.705zm15.943 0h-5.199c-.43 0-.691.356-.691.693v2.82h5.89V5.635zM18.582 1.499c-.026 0-.092-.003-.183 0-.41.012-.866.1-1.237.284-1.222.61-1.754 2.142-2.063 2.858-1.843 4.287 1.646 3.756 2.59 3.557 1.602-.34 3.133-.923 4.359-1.392 3.49-1.338 5.344-2.68 5.959-3.195.075-.063.131-.112.168-.149.088-.087.154-.18.154-.3 0-.142-.127-.255-.373-.337l-.1-.037c-2.669-.815-5.852-1.289-9.274-1.289z"/>
</svg>
